<svg width="158" height="40" viewBox="0 0 158 40" fill="none" xmlns="http://www.w3.org/2000/svg">
<rect width="40" height="40" rx="4" fill="#0F1117"/>
<path d="M32.4443 20.2591V30.3704H30.1113L31.5371 33.8704L29.9814 34.6478L25.0557 30.3704H7.55566V20.2591L20 10.7962L32.4443 20.2591ZM24.1836 23.8304C23.7392 23.7197 23.2974 23.9973 23.0859 24.4036C22.8563 24.845 22.5336 25.2356 22.1377 25.5472C21.5229 26.031 20.7648 26.2966 19.9824 26.3021C19.2 26.3075 18.438 26.0527 17.8164 25.5775C17.4162 25.2715 17.0883 24.8857 16.8525 24.4476C16.6355 24.0443 16.1899 23.7723 15.7471 23.889C15.3041 24.006 15.0336 24.4644 15.2197 24.8831C15.5707 25.6724 16.1154 26.3659 16.8086 26.8958C17.7227 27.5946 18.8435 27.9693 19.9941 27.9612C21.1447 27.9531 22.2598 27.5624 23.1641 26.8509C23.8497 26.3113 24.3848 25.6107 24.7246 24.8167C24.9048 24.3955 24.6281 23.9413 24.1836 23.8304ZM16.1113 18.055C15.2524 18.055 14.5559 18.7518 14.5557 19.6107C14.5557 20.4698 15.2522 21.1663 16.1113 21.1663C16.9703 21.1662 17.667 20.4697 17.667 19.6107C17.6667 18.7518 16.9702 18.0551 16.1113 18.055ZM23.8887 18.055C23.0299 18.0552 22.3333 18.7519 22.333 19.6107C22.333 20.4697 23.0297 21.1662 23.8887 21.1663C24.7477 21.1663 25.4443 20.4697 25.4443 19.6107C25.4441 18.7518 24.7476 18.055 23.8887 18.055ZM37.5 18.8333L35.4258 20.5189L20 8.85187L4.57422 20.5189L2.5 18.8333L20 5.35187L37.5 18.8333Z" fill="url(#paint0_linear_3334_759)"/>
<path fill-rule="evenodd" clip-rule="evenodd" d="M107.608 27.8649C108.258 28.2692 108.993 28.4714 109.814 28.4714C110.451 28.4714 111.027 28.3366 111.541 28.067C111.848 27.9065 112.118 27.7112 112.35 27.4811V28.2876H114.739V15H112.332V20.1835C112.099 19.9564 111.83 19.7662 111.523 19.613C111.021 19.3557 110.451 19.227 109.814 19.227C108.981 19.227 108.239 19.4292 107.59 19.8335C106.953 20.2378 106.445 20.7892 106.065 21.4876C105.697 22.1859 105.513 22.9762 105.513 23.8584C105.513 24.7283 105.697 25.5124 106.065 26.2108C106.445 26.9092 106.959 27.4605 107.608 27.8649ZM111.394 25.9535C111.064 26.1495 110.672 26.2476 110.218 26.2476C109.789 26.2476 109.403 26.1495 109.06 25.9535C108.717 25.7452 108.448 25.4634 108.252 25.1081C108.068 24.7405 107.976 24.3178 107.976 23.84C107.976 23.3744 108.068 22.964 108.252 22.6086C108.448 22.2533 108.711 21.9715 109.042 21.7632C109.385 21.555 109.783 21.4508 110.237 21.4508C110.678 21.4508 111.064 21.555 111.394 21.7632C111.737 21.9593 112.001 22.2411 112.185 22.6086C112.381 22.964 112.479 23.3744 112.479 23.84C112.479 24.3178 112.381 24.7405 112.185 25.1081C112.001 25.4634 111.737 25.7452 111.394 25.9535Z" fill="white"/>
<path fill-rule="evenodd" clip-rule="evenodd" d="M120.618 28.4714C119.797 28.4714 119.062 28.2692 118.413 27.8649C117.764 27.4605 117.249 26.9092 116.869 26.2108C116.502 25.5124 116.318 24.7283 116.318 23.8584C116.318 22.9762 116.502 22.1859 116.869 21.4876C117.249 20.7892 117.757 20.2378 118.395 19.8335C119.044 19.4292 119.785 19.227 120.618 19.227C121.255 19.227 121.825 19.3557 122.328 19.613C122.634 19.7662 122.904 19.9564 123.136 20.1835V15H125.544V28.2876H123.155V27.4811C122.922 27.7112 122.652 27.9065 122.346 28.067C121.831 28.3366 121.255 28.4714 120.618 28.4714ZM121.023 26.2476C121.476 26.2476 121.868 26.1495 122.199 25.9535C122.542 25.7452 122.805 25.4634 122.989 25.1081C123.185 24.7405 123.283 24.3178 123.283 23.84C123.283 23.3744 123.185 22.964 122.989 22.6086C122.805 22.2411 122.542 21.9593 122.199 21.7632C121.868 21.555 121.482 21.4508 121.041 21.4508C120.588 21.4508 120.19 21.555 119.846 21.7632C119.516 21.9715 119.252 22.2533 119.056 22.6086C118.872 22.964 118.781 23.3744 118.781 23.84C118.781 24.3178 118.872 24.7405 119.056 25.1081C119.252 25.4634 119.522 25.7452 119.865 25.9535C120.208 26.1495 120.594 26.2476 121.023 26.2476Z" fill="white"/>
<path fill-rule="evenodd" clip-rule="evenodd" d="M139.718 28.2876L144.919 15.3676H146.959L152.142 28.2876H149.477L148.567 25.88H143.25L142.328 28.2876H139.718ZM145.927 18.891L147.776 23.7849H144.052L145.927 18.891Z" fill="white"/>
<path d="M153.668 28.2876V15.3676H156.167V28.2876H153.668Z" fill="white"/>
<path d="M132.176 28.3611L130.559 32H128.004L130.12 27.5242L126.755 19.4108H129.364L131.394 25.0455L133.5 19.4108H136.128L132.176 28.3611Z" fill="white"/>
<path d="M100.141 28.4714C99.3568 28.4714 98.6585 28.3059 98.0458 27.9751C97.4455 27.6443 96.9738 27.1849 96.6307 26.5968C96.2877 26.0086 96.1161 25.3286 96.1161 24.5568V19.4108H98.5421V24.5016C98.5421 24.8692 98.6033 25.1877 98.7258 25.4573C98.8484 25.7146 99.0322 25.9106 99.2772 26.0454C99.5222 26.1802 99.8102 26.2476 100.141 26.2476C100.643 26.2476 101.035 26.0944 101.317 25.7881C101.599 25.4818 101.74 25.053 101.74 24.5016V19.4108H104.147V24.5568C104.147 25.3409 103.976 26.027 103.633 26.6151C103.302 27.2032 102.83 27.6627 102.218 27.9935C101.617 28.3121 100.925 28.4714 100.141 28.4714Z" fill="white"/>
<path fill-rule="evenodd" clip-rule="evenodd" d="M85.0182 28.2876V15.3676H90.2376C91.0953 15.3676 91.812 15.5268 92.3879 15.8454C92.976 16.1517 93.4171 16.5622 93.7111 17.0768C94.0052 17.5791 94.1522 18.1305 94.1522 18.7308C94.1522 19.4659 93.9256 20.1031 93.4722 20.6422C93.2362 20.9241 92.9405 21.1674 92.5852 21.3721C93.0932 21.6262 93.5114 21.9526 93.8398 22.3514C94.3666 22.964 94.6301 23.7052 94.6301 24.5751C94.6301 25.2613 94.4585 25.8861 94.1155 26.4497C93.7846 27.0011 93.2946 27.4483 92.6452 27.7914C92.0081 28.1222 91.2301 28.2876 90.3111 28.2876H85.0182ZM90.2192 26.2476H87.4992V22.5351H90.2192C90.6236 22.5351 90.9666 22.6209 91.2484 22.7924C91.5425 22.9517 91.763 23.1723 91.9101 23.4541C92.0571 23.7359 92.1306 24.0483 92.1306 24.3914C92.1306 24.8937 91.9591 25.3286 91.616 25.6962C91.2852 26.0638 90.8196 26.2476 90.2192 26.2476ZM87.4992 17.4076H89.9436C90.4582 17.4076 90.8686 17.5362 91.1749 17.7935C91.4935 18.0508 91.6528 18.4429 91.6528 18.9697C91.6528 19.4843 91.4935 19.8703 91.1749 20.1276C90.8686 20.3849 90.4582 20.5135 89.9436 20.5135H87.4992V17.4076Z" fill="white"/>
<path d="M78.9226 28.2876V21.5243H76.8458V19.4108H78.9226V15.7168H81.3301V19.4108H83.4069V21.5243H81.3301V28.2876H78.9226Z" fill="white"/>
<path d="M71.0137 28.2876C71.5038 28.4223 72 28.4897 72.5023 28.4897C73.5805 28.4897 74.4321 28.2386 75.0569 27.7362C75.6818 27.2216 75.9942 26.5294 75.9942 25.6595C75.9942 25.1204 75.884 24.6793 75.6634 24.3362C75.4551 23.9932 75.1795 23.7175 74.8364 23.5092C74.5056 23.3009 74.1503 23.1416 73.7704 23.0314C73.4029 22.9088 73.0476 22.8047 72.7045 22.7189C72.3614 22.6209 72.0796 22.5106 71.8591 22.3881C71.6508 22.2656 71.5467 22.0941 71.5467 21.8735C71.5467 21.6775 71.6386 21.5243 71.8223 21.4141C72.0184 21.3038 72.2941 21.2486 72.6494 21.2486C73.0414 21.2486 73.4029 21.3222 73.7337 21.4692C74.0768 21.6162 74.3831 21.8551 74.6526 22.1859L76.1045 20.7341C75.7124 20.2195 75.2162 19.8335 74.6159 19.5762C74.0277 19.3189 73.3661 19.1903 72.631 19.1903C71.9326 19.1903 71.3261 19.3067 70.8115 19.5395C70.2969 19.7723 69.8987 20.0969 69.6169 20.5135C69.3474 20.9301 69.2126 21.4202 69.2126 21.9838C69.2126 22.5229 69.3168 22.964 69.525 23.307C69.7456 23.6378 70.0274 23.9013 70.3704 24.0973C70.7135 24.2811 71.0688 24.4342 71.4364 24.5568C71.8162 24.667 72.1777 24.7712 72.5207 24.8692C72.8638 24.955 73.1395 25.0652 73.3477 25.2C73.5683 25.3348 73.6786 25.5247 73.6786 25.7697C73.6786 25.9903 73.5744 26.1557 73.3661 26.2659C73.1701 26.3762 72.876 26.4314 72.484 26.4314C71.9939 26.4314 71.5467 26.3456 71.1423 26.1741C70.738 26.0025 70.3827 25.7452 70.0764 25.4022L68.6429 26.8541C68.9369 27.1971 69.2861 27.4912 69.6904 27.7362C70.0948 27.969 70.5359 28.1528 71.0137 28.2876Z" fill="white"/>
<path fill-rule="evenodd" clip-rule="evenodd" d="M63.1599 28.4714C62.2655 28.4714 61.4569 28.2692 60.734 27.8649C60.0234 27.4483 59.4536 26.8908 59.0248 26.1924C58.6082 25.4818 58.3999 24.6915 58.3999 23.8216C58.3999 22.9517 58.6082 22.1737 59.0248 21.4876C59.4414 20.7892 60.0111 20.2378 60.734 19.8335C61.4569 19.4169 62.2594 19.2086 63.1416 19.2086C64.0482 19.2086 64.8569 19.4169 65.5675 19.8335C66.2904 20.2378 66.8601 20.7892 67.2767 21.4876C67.6933 22.1737 67.9016 22.9517 67.9016 23.8216C67.9016 24.6915 67.6933 25.4818 67.2767 26.1924C66.8601 26.8908 66.2904 27.4483 65.5675 27.8649C64.8569 28.2692 64.0544 28.4714 63.1599 28.4714ZM63.1416 26.2292C63.5949 26.2292 63.9931 26.1312 64.3362 25.9351C64.6915 25.7268 64.961 25.445 65.1448 25.0897C65.3409 24.7222 65.4389 24.3056 65.4389 23.84C65.4389 23.3744 65.3409 22.964 65.1448 22.6086C64.9488 22.2533 64.6792 21.9777 64.3362 21.7816C63.9931 21.5733 63.5949 21.4692 63.1416 21.4692C62.7005 21.4692 62.3084 21.5733 61.9654 21.7816C61.6223 21.9777 61.3527 22.2533 61.1567 22.6086C60.9607 22.964 60.8627 23.3744 60.8627 23.84C60.8627 24.3056 60.9607 24.7222 61.1567 25.0897C61.3527 25.445 61.6223 25.7268 61.9654 25.9351C62.3084 26.1312 62.7005 26.2292 63.1416 26.2292Z" fill="white"/>
<path d="M46 15.3676V28.2876H48.4995V22.7189H54.1049V28.2876H56.6043V15.3676H54.1049V20.5135H48.4995V15.3676H46Z" fill="white"/>
<defs>
<linearGradient id="paint0_linear_3334_759" x1="20" y1="5.35187" x2="20" y2="34.6478" gradientUnits="userSpaceOnUse">
<stop stop-color="#1FA8ED"/>
<stop offset="0.535" stop-color="#1155C0"/>
</linearGradient>
</defs>
</svg>
