<svg width="24" height="24" viewBox="0 0 24 24" fill="none" xmlns="http://www.w3.org/2000/svg">
<path d="M10.569 1.46546C11.3538 0.661817 12.6462 0.661816 13.431 1.46546L14.8917 2.96143C15.2738 3.35277 15.7996 3.57053 16.3465 3.56402L18.4372 3.53911C19.5603 3.52574 20.4743 4.43965 20.4609 5.56279L20.436 7.65351C20.4295 8.20043 20.6472 8.72616 21.0386 9.10829L22.5345 10.569C23.3382 11.3538 23.3382 12.6462 22.5345 13.431L21.0386 14.8917C20.6472 15.2738 20.4295 15.7996 20.436 16.3465L20.4609 18.4372C20.4743 19.5603 19.5603 20.4743 18.4372 20.4609L16.3465 20.436C15.7996 20.4295 15.2738 20.6472 14.8917 21.0386L13.431 22.5345C12.6462 23.3382 11.3538 23.3382 10.569 22.5345L9.10829 21.0386C8.72616 20.6472 8.20044 20.4295 7.65351 20.436L5.56279 20.4609C4.43965 20.4743 3.52574 19.5603 3.53911 18.4372L3.56402 16.3465C3.57053 15.7996 3.35277 15.2738 2.96143 14.8917L1.46546 13.431C0.661817 12.6462 0.661816 11.3538 1.46546 10.569L2.96143 9.10829C3.35277 8.72616 3.57053 8.20044 3.56402 7.65351L3.53911 5.56279C3.52574 4.43965 4.43965 3.52574 5.56279 3.53911L7.65351 3.56402C8.20043 3.57053 8.72616 3.35277 9.10829 2.96143L10.569 1.46546Z" fill="#4684FF"/>
<path d="M10.9268 1.81445C11.5153 1.21193 12.4847 1.21193 13.0732 1.81445L14.5342 3.31055C15.0118 3.79972 15.6689 4.0726 16.3525 4.06445L18.4434 4.03906C19.2856 4.02914 19.9709 4.71444 19.9609 5.55664L19.9355 7.64746C19.9274 8.33111 20.2003 8.98816 20.6895 9.46582L22.1855 10.9268C22.7881 11.5153 22.7881 12.4847 22.1855 13.0732L20.6895 14.5342C20.2003 15.0118 19.9274 15.6689 19.9355 16.3525L19.9609 18.4434C19.9709 19.2856 19.2856 19.9709 18.4434 19.9609L16.3525 19.9355C15.6689 19.9274 15.0118 20.2003 14.5342 20.6895L13.0732 22.1855C12.4847 22.7881 11.5153 22.7881 10.9268 22.1855L9.46582 20.6895C8.98816 20.2003 8.33111 19.9274 7.64746 19.9355L5.55664 19.9609C4.71444 19.9709 4.02914 19.2856 4.03906 18.4434L4.06445 16.3525C4.0726 15.6689 3.79972 15.0118 3.31055 14.5342L1.81445 13.0732C1.21193 12.4847 1.21193 11.5153 1.81445 10.9268L3.31055 9.46582C3.79972 8.98816 4.0726 8.33111 4.06445 7.64746L4.03906 5.55664C4.02914 4.71444 4.71444 4.02914 5.55664 4.03906L7.64746 4.06445C8.33111 4.0726 8.98816 3.79972 9.46582 3.31055L10.9268 1.81445Z" stroke="white" stroke-opacity="0.3"/>
<path d="M16 9L10.5 14.5L8 12" stroke="white" stroke-width="1.6" stroke-linecap="round" stroke-linejoin="round"/>
</svg>
